# xmcd
#
# Track frame offsets:
#	150
#	52193
#	79933
#	98433
#	123476
#	142032
#	155716
#	172911
#	199293
#	220817
#	240170
#	261835
#	280961
#	299300
#	317714
#	344754
#
# Disc length: 4817 seconds
#
# Revision: 0
# Processed by: cddbd v1.5.2PL0 Copyright (c) Steve Scherf et al.
# Submitted via: EasyCDDAExtractor 8.2.3.1
#
DISCID=f712cf10
DTITLE=Various Artist - Good Whiskey Blues vol.3 CD-2
DYEAR=2005
DGENRE=Blues
TTITLE0=MIKE GRIFFIN - The Blues Ain't Never Gonna Die
TTITLE1=BLUES BOYZ - Murdered By Live
TTITLE2=CHRIS "Hammer" SMITH - Born In Chicago
TTITLE3=HULA MONSTERS - She Don't Mind
TTITLE4=RED EYE BLUES - Corescent Smile
TTITLE5=SCOTT KEETON - 100 Mile Blues
TTITLE6=BOBBY MACK - Doing Alright
TTITLE7=MASON RUFFNER - Looded Down
TTITLE8=COREY STEVENS - Blue Drops Of Rain
TTITLE9=SCOTT KEETON - Eye On You
TTITLE10=B.C.FARLOW and BLEU JACKSON - Don't Cry To Me
TTITLE11=MASON CASEY - Living In a Dream
TTITLE12=WORKING BLUES BAND - Who's Been Talking
TTITLE13=JOHN CAMPBELL TRIO - No Philisopher
TTITLE14=STAN WEBB - The House That Love Live In
TTITLE15=SLOLEAK - Drunk
EXTD=
EXTT0=
EXTT1=
EXTT2=
EXTT3=
EXTT4=
EXTT5=
EXTT6=
EXTT7=
EXTT8=
EXTT9=
EXTT10=
EXTT11=
EXTT12=
EXTT13=
EXTT14=
EXTT15=
PLAYORDER=
